Coordinates
version=1
nRows=13
nColumns=36
inDegrees=yes

Units are S.I. units (second, meters, Newtons, ...)
If the header above contains a line with 'inDegrees', this indicates whether rotational values are in degrees (yes) or radians (no).

endheader
time	pelvis_tilt	pelvis_list	pelvis_rotation	pelvis_tx	pelvis_ty	pelvis_tz	hip_flexion_r	hip_adduction_r	hip_rotation_r	knee_angle_r	knee_angle_r_beta	ankle_angle_r	subtalar_angle_r	mtp_angle_r	hip_flexion_l	hip_adduction_l	hip_rotation_l	knee_angle_l	knee_angle_l_beta	ankle_angle_l	subtalar_angle_l	mtp_angle_l	lumbar_extension	lumbar_bending	lumbar_rotation	arm_flex_r	arm_add_r	arm_rot_r	elbow_flex_r	pro_sup_r	arm_flex_l	arm_add_l	arm_rot_l	elbow_flex_l	pro_sup_l
      3.51250000	    -12.17245460	      0.31246880	     -0.39089824	      0.25821428	      0.89918564	     -0.03879452	     13.32899300	     -6.07714595	     -5.90814369	      3.45586707	      0.06031626	      2.96816547	      3.62673147	     -7.49999987	     14.94919673	     -3.64647419	      0.04560731	      4.34383638	      0.07581425	     -0.07154153	     -2.57343803	     -7.49999987	     -7.89364655	      3.20999951	      2.56165012	      7.63506629	    -20.12542508	     26.89322972	     40.51914510	     72.01261921	      3.51910483	    -20.43682500	     19.12684744	     62.43332822	     67.61660683
      3.51666670	    -12.34191988	      0.38985433	     -0.49094443	      0.25778837	      0.90156986	     -0.03905625	     13.40500697	     -6.12815669	     -5.89295894	      3.14150522	      0.05482961	      2.80115624	      3.82784666	     -7.49999987	     14.95568085	     -3.57893037	      0.36955037	      3.96248640	      0.06915843	     -0.43984563	     -3.07300340	     -7.49999987	     -7.43106315	      3.16145803	      2.56419581	      7.61990529	    -19.82205923	     27.12767283	     39.71851435	     71.24844107	      3.63422050	    -20.60299735	     20.36580631	     61.56107624	     67.35712670
      3.52083330	    -12.18820514	      0.48835923	     -0.62866440	      0.25819512	      0.90155778	     -0.03880320	     13.13358144	     -6.23030909	     -5.90676061	      2.84655589	      0.04968177	      2.70679003	      3.72119296	     -7.49999987	     14.60256325	     -3.49545532	      0.26091382	      3.65300080	      0.06375689	     -0.57103474	     -3.18652507	     -7.49999987	     -7.44173722	      3.07765561	      2.53726894	      7.49925679	    -19.64719654	     26.57982734	     39.74731970	     73.80579222	      3.44213297	    -20.62874382	     20.15412500	     61.43438009	     69.37409313
      3.52500000	    -12.04234963	      0.58529387	     -0.65317104	      0.25750727	      0.90123999	     -0.03871145	     12.89777783	     -6.35559950	     -5.83503760	      2.54734991	      0.04445964	      2.59332598	      3.37943780	     -7.49999987	     14.36643244	     -3.38313034	      0.16969109	      3.46419062	      0.06046153	     -0.68543393	     -3.38815271	     -7.49999987	     -7.62130150	      2.96030751	      2.51040635	      7.30807298	    -19.62838974	     26.14264738	     39.92352746	     72.78973714	      3.32740427	    -20.72074286	     20.37519454	     61.68067443	     68.72555313
      3.52916670	    -11.99854933	      0.65876568	     -0.71119385	      0.25781098	      0.90108832	     -0.03849873	     12.81451147	     -6.44029525	     -5.89829339	      2.36265410	      0.04123609	      2.60408665	      3.58769670	     -7.49999987	     14.16271720	     -3.34100189	      0.07141097	      3.19326524	      0.05573299	     -0.76481940	     -3.47077075	     -7.49999987	     -7.55527950	      2.87466792	      2.53601165	      7.16158819	    -19.66501235	     26.06519798	     39.87432908	     71.55957879	      3.35580685	    -20.90673982	     21.24379458	     61.64792950	     67.93460003
      3.53333330	    -11.92808103	      0.64165760	     -0.71669947	      0.26157161	      0.90060467	     -0.03433084	     12.53905255	     -6.33101738	     -5.87497062	      2.06786454	      0.03609104	      2.61482279	      3.61110051	     -7.49999987	     13.89366944	     -3.47139976	     -0.17951187	      2.99085736	      0.05220031	     -0.84804921	     -3.56150118	     -7.49999987	     -7.38805770	      2.83993445	      2.57096264	      6.81556196	    -19.63559762	     26.06307416	     39.83946966	     71.60010080	      2.96285640	    -20.94017221	     21.27984197	     61.65472827	     67.95833999
      3.53750000	    -11.66211234	      0.63388359	     -0.70920933	      0.26186114	      0.90098854	     -0.03439869	     11.97879971	     -6.24216741	     -5.69300331	      1.69846405	      0.02964379	      2.51601999	      3.49373104	     -7.49999987	     13.34672505	     -3.55289508	     -0.40713279	      2.63413881	      0.04597440	     -0.88825877	     -3.24656640	     -7.49999987	     -7.56643427	      2.80433762	      2.55948827	      6.35228977	    -19.55160206	     25.44069961	     39.95691966	     70.89869132	      2.58641893	    -21.04034395	     21.09535533	     61.93621177	     67.48416863
      3.54166670	    -11.55308763	      0.59339878	     -0.70358237	      0.26102809	      0.90072289	     -0.03417514	     11.67874967	     -6.10043737	     -5.92809520	      1.50112525	      0.02619958	      2.68974019	      3.81182391	     -7.49999987	     13.04238441	     -3.66539796	     -0.68298168	      2.38163638	      0.04156740	     -0.80153383	     -2.86643644	     -7.49999987	     -7.57076518	      2.79274764	      2.47235359	      5.96994765	    -19.31498719	     24.38408095	     40.02072892	     70.42511381	      2.18070990	    -21.24951171	     20.99403906	     62.48041477	     67.00975300
      3.54583330	    -11.36404950	      0.59247840	     -0.64847796	      0.26134424	      0.89797268	     -0.03439817	     11.32878340	     -6.06720669	     -6.18034904	      1.36141963	      0.02376126	      3.02715710	      4.00331802	     -7.49999987	     12.62801635	     -3.67395872	     -0.78343757	      2.04760200	      0.03573740	     -0.69378062	     -2.72808461	     -7.49999987	     -7.72876852	      2.77714417	      2.47788950	      5.30003917	    -19.42224731	     23.34558144	     41.08344862	     68.47559551	      1.97183943	    -21.22802253	     20.52606887	     62.77822906	     65.67661685
      3.55000000	    -11.26991738	      0.57836467	     -0.64130819	      0.26523821	      0.89780105	     -0.03033709	     11.02536762	     -5.91548909	     -5.95319747	      1.19879086	      0.02092285	      3.36657380	      3.68937336	     -7.49999987	     12.30896242	     -3.77325270	     -0.93773351	      1.88119819	      0.03283310	     -0.58136299	     -2.73334308	     -7.49999987	     -7.52416424	      2.69615865	      2.38698887	      4.98673906	    -19.25034210	     23.33546903	     41.03362694	     68.65379361	      1.50062516	    -21.48808721	     20.72326350	     62.91122974	     65.79501462
      3.55416670	    -10.86743558	      0.54573744	     -0.58806277	      0.26541938	      0.89565050	     -0.03059734	     10.42018357	     -5.80707970	     -5.72339162	      1.10646907	      0.01931153	      3.40623095	      2.97258532	     -7.49999987	     11.74320227	     -3.88680850	     -1.23224981	      1.77591770	      0.03099561	     -0.24923900	     -2.13862858	     -7.49999987	     -7.81986683	      2.64097275	      2.48550390	      4.39545340	    -18.97194086	     22.29509698	     41.48875340	     66.56983169	      1.23824432	    -21.86369380	     21.32363113	     63.82208405	     64.22004682
      3.55833330	    -10.81213510	      0.55876119	     -0.60742019	      0.26475048	      0.89604174	     -0.03072015	     10.27226449	     -5.75625986	     -5.49617550	      1.03902237	      0.01813436	      3.57812053	      2.71776228	     -7.49999987	     11.60859344	     -3.92621316	     -1.48115698	      1.69118892	      0.02951681	     -0.23231023	     -1.79501031	     -7.49999987	     -7.62613473	      2.58645040	      2.14995922	      4.22284759	    -18.50738928	     20.72954498	     41.25702706	     74.02344011	      0.44167714	    -21.59975108	     19.72338065	     63.89499843	     68.36917741
      3.56250000	    -10.67894167	      0.55239758	     -0.54308805	      0.26505240	      0.89670361	     -0.03096203	     10.00432624	     -5.71315474	     -5.56125618	      1.01774064	      0.01776293	      3.66966419	      2.55007454	     -7.49999987	     11.37000263	     -3.90771192	     -1.62897379	      1.68017175	      0.02932453	     -0.03269938	     -1.48608380	     -7.49999987	     -7.51070995	      2.56435705	      2.16211589	      3.82074019	    -18.28800775	     19.98201648	     41.52843587	     71.28705966	      0.45420410	    -21.50393371	     19.96165727	     63.58295027	     66.76386374
